<?xml version="1.0" encoding="utf-8"?>
<!-- Generator: Adobe Illustrator 18.0.0, SVG Export Plug-In . SVG Version: 6.00 Build 0)  -->
<!DOCTYPE svg PUBLIC "-//W3C//DTD SVG 1.1//EN" "http://www.w3.org/Graphics/SVG/1.1/DTD/svg11.dtd">
<svg version="1.1" id="Layer_1" xmlns="http://www.w3.org/2000/svg" xmlns:xlink="http://www.w3.org/1999/xlink" x="0px" y="0px"
	 viewBox="0 0 1210 1078" enable-background="new 0 0 1210 1078" xml:space="preserve">
<g id="_x23_ffffffff">
</g>
<g id="_x23_000000ff">
	<path d="M289.4,5.3C294.2,5.1,299.1,5,304,5c204.7,0,409.3,0,614,0c36-0.1,72,8.6,103.9,25.2c43.9,22.7,80,60.2,100.9,105.1
		c10.3,21.9,17,45.6,19.7,69.6c2.2,18,1.3,36.1,1.5,54.1c0,196,0,392,0,588c0.1,36.2-8.7,72.4-25.5,104.5
		c-18.1,34.7-45.4,64.5-78.3,85.7c-31.1,20.1-67.3,32.3-104.3,35.1c-11,0.9-22,0.7-33,0.7c-196,0-392,0-588,0
		c-13.6,0.1-27.2,0.1-40.8-1.7c-30.6-3.7-60.5-13.8-87-29.5c-25-14.7-47-34.4-64.7-57.3c-22.3-29-37.3-63.4-43.3-99.5
		c-3.1-17.1-3.4-34.6-3.2-52c0-200.7,0-401.3,0-602c-0.1-39.7,10.5-79.3,30.5-113.6c21.5-37,53.6-67.6,91.6-87.2
		C226.3,15.5,257.6,7,289.4,5.3 M290.4,65.4c-45.8,2.9-89.6,26-118.1,61.9C149.1,156.1,136.1,193,136,230c0,205.7,0,411.3,0,617
		c0,20.9,3.9,41.9,11.7,61.3c10.9,27.6,29.4,52.1,52.9,70.1c27.9,21.7,63,34,98.4,34.5c206.7,0.1,413.3,0,620,0
		c48.9,0.1,97.1-23.1,127.8-61.2c24-29.3,37.4-67,37.2-104.8c0-198.7,0-397.3,0-596c-0.1-15,0.6-30.1-1.8-44.9
		c-6.2-42.1-29.4-81.2-63.3-106.9C990.5,77.2,954.8,65.1,919,65c-205,0-410,0-615,0C299.5,65,294.9,65.1,290.4,65.4z"/>
	<path d="M586.5,278.5c9.7-9.5,25.2-12.2,37.5-6.5c12,5.2,20.1,17.9,20,30.9c0.1,51.4,0,102.7,0.1,154.1
		c36.3-36.3,72.7-72.7,109-109c7.3-7.5,18.2-11.3,28.7-9.8c11.7,1.5,22.2,9.5,26.7,20.4c4.1,9.6,3.4,21-1.8,30
		c-2.5,4.6-6.5,8.2-10.1,11.9C761.6,435.3,726.8,470.1,692,505c51.7,0.1,103.4-0.1,155.1,0.1c16,0.2,30.5,13.2,32.5,29
		c2.4,14.6-6.1,30-19.6,35.9c-6.2,3-13.2,3.2-20,3c-49.3,0-98.7,0-148.1,0c36.6,36.7,73.4,73.3,110,110
		c11.1,11.4,12.2,30.8,2.5,43.3c-8.9,12.4-26.7,17.2-40.7,10.9c-4.9-2-9-5.5-12.7-9.3c-35.7-35.7-71.3-71.4-107-107
		c-0.1,51.7,0.1,103.4-0.1,155.1c-0.2,15.7-12.7,30-28.2,32.4c-14.3,2.7-29.7-5.1-36.1-18.1c-3-5.6-3.9-12.1-3.7-18.3
		c0-50.3,0-100.7,0-151c-36.3,36.3-72.7,72.7-109,109c-7.4,7.6-18.4,11.4-28.9,9.8c-11.3-1.5-21.6-9.2-26.1-19.7
		c-4.4-9.7-3.9-21.5,1.5-30.7c2.5-4.6,6.5-8.2,10.1-11.9c34.8-34.8,69.7-69.7,104.5-104.5c-51.4-0.1-102.7,0-154.1-0.1
		c-9.1,0-18.2-3.8-24.5-10.4c-9.5-9.7-12.2-25.2-6.5-37.5c5.2-12,17.9-20.1,30.9-20c51.4-0.1,102.7,0,154.1,0
		c-36.3-36.3-72.7-72.7-109-109c-7.6-7.4-11.4-18.4-9.8-28.9c1.5-11.3,9.2-21.5,19.7-26.2c9.7-4.4,21.5-3.9,30.7,1.5
		c4.6,2.5,8.2,6.5,11.9,10.1c34.8,34.8,69.7,69.7,104.5,104.5c0.1-51.4,0-102.7,0.1-154.1C576,293.8,579.8,284.8,586.5,278.5z"/>
</g>
</svg>
