<?xml version="1.0" encoding="utf-8"?>
<!-- Generator: Adobe Illustrator 18.0.0, SVG Export Plug-In . SVG Version: 6.00 Build 0)  -->
<!DOCTYPE svg PUBLIC "-//W3C//DTD SVG 1.1//EN" "http://www.w3.org/Graphics/SVG/1.1/DTD/svg11.dtd">
<svg version="1.1" id="Layer_1" xmlns="http://www.w3.org/2000/svg" xmlns:xlink="http://www.w3.org/1999/xlink" x="0px" y="0px"
	 viewBox="0 0 496 236" enable-background="new 0 0 496 236" xml:space="preserve">
<g id="_x23_000000fe">
	<path d="M47,26.1c3.2-1,6.7-1,10-0.2c-1.1,1.2-2.1,2.8-3.9,3.1C45.4,31,38.2,34.3,31.2,38c-1.6,0.8-2.9,2.1-4.1,3.5
		c5.7-0.6,11.1-3,16.8-3.9c25.5-5.7,53-4.6,76.8,6.7c17.8,8,33.3,20.3,47.3,33.7c3.7,3.6,7.4,7.2,10.2,11.5
		c-1.6,0.6-3.5,1.9-4.9,0.2c-12.2-11.9-24.6-23.7-39-32.8c-13.4-8.6-28.5-14.9-44.3-17.1c-19.1-3.2-38.5,0.4-57,5.3
		c2.2,4,6.3,6.6,8.1,10.8c-1.2,0.5-2.5,1.1-3.7,0.3c-3.1-1.6-5.4-4.2-7.9-6.4c-4.3-4.2-9.1-7.9-13.2-12.3c2.9-2.9,7,0.3,10.1-1.9
		C32.8,31.7,39.7,28.4,47,26.1z"/>
	<path d="M320.6,88.7c0.9-0.4,1.9-0.8,2.9-1.1c0.5,10-0.3,20,0.1,30c2.9-4,5.2-9.4,10.4-10.8c4.8-0.4,7.7,4.7,8.9,8.7
		c2.6,9.8,2.9,20.2,1.8,30.2c-0.5,0.2-1.4,0.7-1.9,1c-2-2.1-1-5.1-1.2-7.6c0-7.8,0.2-15.9-2.4-23.4c-0.7-2.6-2.7-4.4-4.7-6
		c-4.9,3.8-7.7,9.4-10.2,14.9c-0.7,1.4-1,2.8-1,4.4c-0.1,5.6,0,11.3-0.2,16.9c-0.8,0-2.3,0-3.1,0c-0.1-15.9,0.3-31.8,0.3-47.8
		C320.5,94.9,320.2,91.8,320.6,88.7z"/>
	<path d="M441.3,88.6c0.8-0.3,2.2-0.8,3-1.1c0.7,9.7-0.4,19.5,0.2,29.3c2.8-3.4,4.9-7.9,9.2-9.7c4-1.5,7.5,2.4,8.8,5.8
		c4.3,10.5,3.1,22.2,2.9,33.4c-1,0-2,0-3,0c-0.1-10.2,0.6-20.6-2.4-30.4c-0.8-2.5-2.6-4.3-4.3-6.2c-5.8,3.7-8.7,10.2-11.2,16.3
		c-1,6.5-0.1,13.2-0.7,19.8c-0.8,0.1-2.4,0.2-3.2,0.2c-0.4-13.6,0.3-27.3,0.2-40.9C441,99.6,440.5,94.1,441.3,88.6z"/>
	<path d="M419.2,90.2c0.8,0,2.3-0.1,3.1-0.1c0.1,5.4-0.2,10.8-0.2,16.1c2.4-0.1,4.9-0.2,7.3,0c0.1,0.7,0.2,2.2,0.2,2.9
		c-2.5,0.3-5,0.3-7.6,0.4c0.2,9.4-0.6,18.9,0.3,28.4c-0.1,3.2,3.5,7.5,6.7,5.1c2.9-2.2,1.7-7,4.8-8.9c2.1,1.8,1.1,4.6,0.5,6.8
		c-0.9,3.1-3.2,5.9-6.6,6.3c-4.1,0.2-7.9-3.1-8.5-7.1c-2.1-10-0.3-20.2-0.8-30.3c-1.2-0.7-4.5,0.2-4-2c-0.5-2.1,2.7-1.3,3.9-2
		C418.7,100.7,418.9,95.4,419.2,90.2z"/>
	<path d="M407.1,99.1c0.9-0.6,1.9-1.2,2.8-1.8c1,0.5,1.9,1.1,2.8,1.8C410.9,100.9,408.9,100.9,407.1,99.1z"/>
	<path d="M183.5,119.4c-3.8-6.3,2.8-14.4,9.6-13.3c5.6,0.2,8.5,5.9,9.6,10.7c-3.9,0.6-4.5-3.7-6.7-5.9c-2.9-3.7-8.8-0.8-10.1,3.1
		c-0.9,2.2,0.8,4.2,2.3,5.6c5,4.5,12.1,7.3,15,13.8c1.2,3.7,1.5,9-2.5,11.2c-7.6,4.2-18.9-0.2-21.1-8.8c-1.2-1.9,0.8-2.9,2.2-3.6
		c1.1,2.7,1.9,5.7,4.3,7.6c3.3,2.8,8.1,3.6,12.1,2.3c3.1-1.3,2.9-5.4,1.5-7.9C195.9,127.7,187.7,125.6,183.5,119.4z"/>
	<path d="M213.6,108.6c3-3.4,8.8-3.4,11.9-0.1c3.3,3.4,5.3,8,6,12.7c-0.6,1.6-2.5,1.7-3.9,2c-5.6,0.9-11.2,0.8-16.9,0.9
		c-0.1,5.1-0.2,10.7,3,15c2.3,3.4,7.3,4.3,10.7,2.2c3.3-1.9,5-5.4,7.6-8.1c0.5,0.3,1.6,1,2.1,1.3c-0.9,3.2-3.1,5.9-5.5,8.1
		c-4.5,4.3-12.6,4.2-16.8-0.5c-3.6-3.7-4.3-9.2-4.6-14.2C207.3,121.2,208.8,113.8,213.6,108.6 M211.2,120.4c5.5,0.1,11-0.1,16.4-0.8
		c-1.3-4-3-9.3-7.7-10.3C214.4,109.7,213,116.3,211.2,120.4z"/>
	<path d="M243.1,109.9c3.1-2.9,7.6-3.9,11.7-3.4c3.2,0.6,4.9,3.8,5.9,6.6c1.7,5.5,1.8,11.3,1.8,16.9c-0.1,5.9-0.1,11.8-1.2,17.6
		c-3.5-0.8-2.6-4.3-2.7-6.9c-2.3,1.7-4.4,3.6-7.1,4.6c-4.6,1.8-10.6-0.4-12.6-5.1c-2.7-5.7-1.6-12.6,1.7-17.8
		c1.8-2.8,4.8-5.1,8.2-5.2c3.7-0.3,6.8,1.9,10.1,3.1c-1.1-3.7-1-8.7-4.9-10.7c-3.2-0.2-6.1,1.5-9.2,2.1
		C244.4,111.3,243.6,110.4,243.1,109.9 M244.9,122.8c-3.8,3.8-4.5,9.8-3.3,14.8c1,3.6,4.9,5.8,8.5,4.7c4.2-1.5,6.8-5.5,9.3-9
		c0-1.9,0-3.8,0.1-5.8c-1.6-2.1-3.2-4.3-5.5-5.7C251.1,120.3,247.1,120.4,244.9,122.8z"/>
	<path d="M298.9,107.8c3.3-2.4,8.7-2.2,10.9,1.5c1.8,2.8,4.5,7.3,0.4,9.4c-1.6-3.1-1.9-7.3-5.2-9.2c-2.8-0.4-5.2,1.7-6.9,3.8
		c-4.6,6.3-5,15.1-2.5,22.3c1.5,3.3,4.1,7.6,8.3,7.2c3.9-0.4,5.8-4.3,7.4-7.3c0.8-1.3,1.6-3.9,3.8-2.8c0.8,1.8-0.3,3.6-1.1,5.2
		c-2.1,4-5.4,8-10.1,8.5c-4.3,0.4-7.8-2.9-10-6.3c-3.7-6.3-4.3-14.1-2.2-21C292.9,114.6,295.2,110.4,298.9,107.8z"/>
	<path d="M268.1,115.7c2-3,3.6-6.7,7-8.4c3.1-1.7,6.5,0.7,8.2,3.3c1.8,2.7,3.5,5.8,3.4,9.1c-1.1,0-2.8,0.5-3.2-1
		c-1.5-3.4-3.1-6.9-6.2-9.1c-6.3,5.2-8,13.8-8.1,21.6c-0.3,5.6,0.5,11.3-1,16.8c-1-1.1-2.8-1.9-2.6-3.7c-0.6-6.4,0-12.8-0.4-19.2
		c-0.2-4.1-0.9-8.2-0.5-12.3c0.6-0.3,1.9-1,2.6-1.3C267.5,112.8,267.8,114.2,268.1,115.7z"/>
	<path d="M399.9,107.2c0.8,0,2.3,0.1,3.1,0.1c-0.5,10.3-1.5,20.6-3.6,30.6c-0.7,3.2-1.2,7.3-4.4,9.1c-1.3-0.7-2.6-1.4-3.3-2.7
		c-3.5-5.2-4.1-11.8-7.1-17.2c-1.5,3.6-2.5,7.4-3.6,11.1c-0.9,2.9-2.1,6.2-5,7.6c-3-0.1-3.4-3.6-4-5.8c-1.5-10.7-3.7-21.4-3.9-32.2
		c0.5-0.2,1.5-0.5,2-0.7c1.9,1.7,1.2,4.7,1.7,7c1.5,8.9,1.6,18,4.3,26.7c2.9-6.2,3.9-13,6.5-19.3c0.5-1.6,2.2-2.1,3.5-2.9
		c3,7.9,4.3,16.3,8.3,23.9c1-2.7,1.9-5.5,2.3-8.4C398,125.2,399.1,116.2,399.9,107.2z"/>
	<path d="M408.2,107.9c1,0,2.1-0.1,3.1-0.2c0.6,8.7,0.2,17.5,0.3,26.2c-0.1,4.1,0.3,8.2-0.5,12.3c-1,0.6-2.2,0.9-2.9-0.4
		c-0.6-3.9-0.3-7.9-0.3-11.8C408.1,125.3,407.7,116.6,408.2,107.9z"/>
	<path d="M223.6,157.2c1.1,0,2.1,0,3.2,0c0.1,9.8-0.3,19.6,0,29.3c2.8-3.8,4.9-8.6,9.5-10.6c3.2-1.3,6.2,1.3,7.8,3.8
		c2.8,4.5,3.3,10,4,15.2c0.4,6.7,0.9,13.4-0.1,20.1c-0.7,0-2.1,0-2.7,0c-0.8-9.6,0.7-19.5-2.1-28.9c-0.8-2.4-1.7-5.1-3.9-6.7
		c-2.4-0.7-4.1,1.5-5.4,3.1c-2.8,4-5.2,8.4-6.8,13c-0.7,6.4,0,12.9-0.5,19.4c-0.8,0-2.3-0.1-3.1-0.1
		C223.1,195.6,223.5,176.4,223.6,157.2z"/>
	<path d="M201.6,159.6c1-0.4,2-0.8,3.1-1c0.5,5.5-0.1,11-0.2,16.6c2.8,0.4,7.3-1.6,8.4,2c-2.5,1.5-5.6,1.2-8.4,1.4
		c0.5,9.8-1.1,19.8,0.8,29.6c0.2,2.8,3.2,5.8,6,4.2c2.7-1.5,2.4-4.9,3.3-7.4c0.1-1.9,2.5-0.9,3.7-1.3c-0.8,4.1-1.2,9.2-5.1,11.6
		c-3.7,2.4-8.7-0.1-10.4-3.8c-1.6-3.6-1.7-7.6-1.8-11.4c0-7.1,0.1-14.1,0.1-21.2c-1.7-0.6-4.7-0.6-3.7-3.1c1.2-0.4,2.4-0.7,3.6-0.9
		C201.2,169.8,201.1,164.7,201.6,159.6z"/>
	<path d="M253.8,169.5c0.4-1.5,0.2-4,2.5-3.4c0.3,1.1,0.6,2.2,0.8,3.4C256.3,169.5,254.7,169.5,253.8,169.5z"/>
	<path d="M264,186.9c-2.1-6,3.9-12.6,10-11.8c5.2-0.1,8.4,5.1,9.6,9.5c-0.8,0.5-1.7,1-2.5,1.5c-1.6-2.6-2.8-5.7-5.4-7.4
		c-3.9-1.8-9.4,1.9-8.7,6.4c0.2,2,2,3.3,3.4,4.5c4.6,3.6,10.2,6.4,13.3,11.6c1.9,3.7,2.4,9.4-1.5,12c-6.6,4.3-16.2,1.1-20.3-5.2
		c-1-2.2-3-5.4,0.1-6.8c2.1,2,2.6,5.1,4.6,7.1c3.2,3.1,8.1,4.1,12.3,2.9c2.8-1,3.4-4.4,2.4-6.9C278.1,196.3,267.4,194.8,264,186.9z"
		/>
	<path d="M367.1,177c3.1-3.1,8.5-2.6,11.5,0.5c3,3.2,4.9,7.4,5.7,11.7c0.5,1.4-1,2.6-2.3,2.7c-6,1.3-12.2,1-18.4,1.2
		c-0.1,4.7-0.3,9.8,2.3,14c2,4,7.5,5.6,11.3,3.3c3.4-1.9,5.2-5.6,7.9-8.4c0.5,0.5,1.4,1.5,1.9,1.9c-1.8,4.2-4.8,8.1-9.1,9.9
		c-4.5,2-10.4,0.7-13.5-3.2c-3.2-3.7-3.9-8.9-4.2-13.6C360.2,189.9,361.8,182.2,367.1,177 M364.1,189.4c5.5,0.1,11-0.1,16.5-0.8
		c-1.4-4-3.1-9.2-7.7-10.3C367.4,178.7,365.9,185.1,364.1,189.4z"/>
	<path d="M321.6,176.6c2.8-1.8,6.4,0,8.3,2.3c2.1,2.9,2.9,6.5,4.1,9.9c1.9-3.9,3.1-8.4,6.5-11.4c2.9-2.8,8.1-2.9,10.9,0.2
		c3,3.2,4.2,7.7,4.8,12c1.1,8.4,1.1,16.9,0.6,25.3c-0.8,0-2.4,0-3.1,0c-0.4-10,1-20.3-2.1-30.1c-0.7-2.4-2-5.1-4.6-5.9
		c-3.1-0.8-5.6,1.9-6.8,4.4c-4.8,9.3-5.2,20-7,30.1c-1,0-2,0-3,0c-0.4-8.5,0.9-17.2-0.6-25.6c-0.7-3.1-1.5-6.9-4.7-8.3
		c-2-0.5-3.5,1.5-4.4,3c-5.4,9.6-6.1,20.9-6,31.7c-1.1-0.1-2.2-0.1-3.3-0.2c-1.1-7.7-0.9-15.4-1.6-23.1c-0.2-4.6-1-9.3-0.4-13.9
		c0.6,0.1,1.9,0.2,2.5,0.3c1.1,3.1,0.6,6.6,1.3,9.8c0.4-0.1,1.1-0.3,1.5-0.4C316.7,183.3,317.8,178.8,321.6,176.6z"/>
	<path d="M406.3,176.3c2.5-1.6,6.2-1.1,7.8,1.5c2.5,3.6,3,8.2,3.6,12.4c1,7.9,1.8,15.9,1.4,23.9c-0.6,0.2-1.9,0.5-2.5,0.6
		c-2.4-9.6-0.8-19.8-3.2-29.4c-0.7-2.4-1.2-5.3-3.5-6.8c-5.6,1.8-8.3,7.6-11,12.4c-3,5.1-3.8,11.1-3.6,17c-0.2,2.6,0.5,5.5-1.3,7.7
		c-1.1-0.5-2.3-1.1-2.1-2.5c-0.3-5.4,0-10.8-0.4-16.1c-0.1-5-0.8-10-0.3-15c0.5-0.2,1.5-0.7,1.9-0.9c1.6,3,1.1,6.5,1.6,9.8
		C398.2,185.7,400.8,179.6,406.3,176.3z"/>
	<path d="M424.8,179.4c0.4-1.5,0.1-3.9,2.2-4.1c2.6,2.2,0.6,5.8,0.8,8.7c-0.3,8.4-1.6,17.3,1.8,25.2c0.8,2.6,4.1,3.4,6.1,1.8
		c3.3-3,4.5-7.6,5.5-11.7c1.8-6.6,1.4-13.5,2.2-20.2c0-1.5,1.2-2.2,2.6-1.9c1.8,3.3,0.7,7.3,1,10.9c-0.4,9.3,0.9,18.6,0.3,27.8
		c-3.8-1.3-3-5.6-3.8-8.6c-3.1,3.1-5.5,8.2-10.5,8.1c-4.5,0.1-7-4.4-7.8-8.2C423.3,198,424.2,188.6,424.8,179.4z"/>
	<path d="M254.3,177.3l0.5-1.1c2.8,0.6,2.1,3.7,2.4,5.8c0.1,8.3-0.1,16.7,0,25c0,3,0.1,6-0.9,8.9c-0.6-0.2-1.7-0.5-2.3-0.7
		c-0.6-9.4,0-18.8-0.2-28.2C253.9,183.8,253.2,180.4,254.3,177.3z"/>
</g>
</svg>
